# xmcd
#
# Track frame offsets:
#	150
#	23100
#	40107
#	60927
#	82049
#	108800
#	134107
#	161221
#	177989
#	194410
#
# Disc length: 2907 seconds
#
# Revision: 1
# Processed by: cddbd v1.5.2PL0 Copyright (c) Steve Scherf et al.
# Submitted via: audiograbber 1.83.01
#
DISCID=840b590a
DTITLE=Kýrýkkaleli Ali Osman - Kýrýkkaleli Ali Osman - Gel Dostum Ýçelim (2006)
DYEAR=1900
DGENRE=
TTITLE0=Gittin gideli
TTITLE1=Bir þiþe þarap
TTITLE2=Gel dostum içelim
TTITLE3=Yürü tren
TTITLE4=Gözüm baðlý geçemedim
TTITLE5=Deðme doktor
TTITLE6=Babam
TTITLE7=Fadimem
TTITLE8=Yorma dünya
TTITLE9=Dost kapýsý
EXTD=
EXTT0=
EXTT1=
EXTT2=
EXTT3=
EXTT4=
EXTT5=
EXTT6=
EXTT7=
EXTT8=
EXTT9=
PLAYORDER=
